<svg xmlns="http://www.w3.org/2000/svg" width="40" height="px" viewBox="0 0 40 40"><g fill-rule="evenodd"><path d="M1544.986 1511.355c0-47.142 38.217-85.367 85.372-85.367h341.335c47.104 0 85.321 38.225 85.321 85.367v349.29c0 47.142-38.217 85.367-85.32 85.367h-341.336c-47.155 0-85.372-38.225-85.372-85.367Zm0 0" transform="matrix(.07605 0 0 .0749 -116.958 -106.292)" fill="#fff" stroke-width="13.75" stroke="#000" stroke-miterlimit="8"/><path d="M6.691 7.863c0-2.687 2.215-4.867 4.946-4.867 2.726 0 4.941 2.18 4.941 4.867 0 2.692-2.215 4.871-4.941 4.871-2.73 0-4.946-2.18-4.946-4.87Zm16.047 0c0-2.687 2.211-4.867 4.942-4.867 2.73 0 4.945 2.18 4.945 4.867 0 2.692-2.215 4.871-4.945 4.871-2.73 0-4.942-2.18-4.942-4.87ZM6.691 20c0-2.688 2.215-4.867 4.946-4.867 2.726 0 4.941 2.18 4.941 4.867 0 2.688-2.215 4.867-4.941 4.867-2.73 0-4.946-2.18-4.946-4.867Zm15.516-.074c0-2.692 2.211-4.871 4.941-4.871s4.942 2.18 4.942 4.87c0 2.688-2.211 4.868-4.942 4.868-2.73 0-4.941-2.18-4.941-4.867ZM6.387 32.172c0-2.668 2.215-4.832 4.945-4.832 2.73 0 4.941 2.164 4.941 4.832 0 2.668-2.21 4.832-4.941 4.832-2.73 0-4.945-2.164-4.945-4.832Zm15.82-.149c0-2.668 2.211-4.832 4.941-4.832s4.942 2.164 4.942 4.832c0 2.668-2.211 4.832-4.942 4.832-2.73 0-4.941-2.164-4.941-4.832Zm0 0" fill="#c39"/></g></svg>