<svg xmlns="http://www.w3.org/2000/svg" width="40" height="px" viewBox="0 0 40 40"><g fill-rule="evenodd"><path d="M867.986 1511.355c0-47.142 38.217-85.367 85.372-85.367h341.335c47.104 0 85.321 38.225 85.321 85.367v349.29c0 47.142-38.217 85.367-85.32 85.367H953.357c-47.155 0-85.372-38.225-85.372-85.367Zm0 0" transform="matrix(.07605 0 0 .0749 -65.475 -106.292)" fill="#fff" stroke-width="13.75" stroke="#000" stroke-miterlimit="8"/><path d="M6.691 7.863c0-2.687 2.215-4.867 4.946-4.867 2.726 0 4.941 2.18 4.941 4.867 0 2.692-2.215 4.871-4.941 4.871-2.73 0-4.946-2.18-4.946-4.87Zm15.969 0c0-2.687 2.215-4.867 4.945-4.867 2.73 0 4.942 2.18 4.942 4.867 0 2.692-2.211 4.871-4.942 4.871-2.73 0-4.945-2.18-4.945-4.87ZM15.059 19.55c0-2.687 2.21-4.866 4.941-4.866 2.73 0 4.941 2.18 4.941 4.867s-2.21 4.867-4.941 4.867c-2.73 0-4.941-2.18-4.941-4.867ZM6.387 32.172c0-2.668 2.215-4.832 4.945-4.832 2.73 0 4.941 2.164 4.941 4.832 0 2.668-2.21 4.832-4.941 4.832-2.73 0-4.945-2.164-4.945-4.832Zm15.82-.149c0-2.668 2.195-4.832 4.902-4.832 2.711 0 4.907 2.164 4.907 4.832 0 2.668-2.196 4.832-4.907 4.832-2.707 0-4.902-2.164-4.902-4.832Zm0 0" fill="#c39"/></g></svg>