<svg xmlns="http://www.w3.org/2000/svg" width="40" height="px" viewBox="0 0 40 40"><g fill-rule="evenodd"><path d="M1563.986 825.355c0-47.142 38.217-85.367 85.32-85.367h341.387c47.104 0 85.321 38.225 85.321 85.367v349.29c0 47.142-38.217 85.367-85.32 85.367h-341.387c-47.104 0-85.321-38.225-85.321-85.367Zm0 0" transform="matrix(.07605 0 0 .0749 -118.403 -54.906)" fill="#fff" stroke-width="13.75" stroke="#000" stroke-miterlimit="8"/><path d="M6.691 7.863c0-2.687 2.215-4.867 4.946-4.867 2.726 0 4.941 2.18 4.941 4.867 0 2.692-2.215 4.871-4.941 4.871-2.73 0-4.946-2.18-4.946-4.87ZM15.059 20c0-2.688 2.21-4.867 4.941-4.867 2.73 0 4.941 2.18 4.941 4.867 0 2.688-2.21 4.867-4.941 4.867-2.73 0-4.941-2.18-4.941-4.867Zm7.148 12.059c0-2.688 2.211-4.868 4.941-4.868s4.942 2.18 4.942 4.868c0 2.691-2.211 4.87-4.942 4.87-2.73 0-4.941-2.179-4.941-4.87Zm0 0" fill="#c39"/></g></svg>