<svg xmlns="http://www.w3.org/2000/svg" width="40" height="px" viewBox="0 0 40 40"><g fill-rule="evenodd"><path d="M189.986 825.355c0-47.142 38.217-85.367 85.372-85.367h341.284c47.155 0 85.372 38.225 85.372 85.367v349.29c0 47.142-38.217 85.367-85.372 85.367H275.358c-47.155 0-85.372-38.225-85.372-85.367Zm0 0" transform="matrix(.07605 0 0 .0749 -13.916 -54.906)" fill="#fff" stroke-width="13.75" stroke="#000" stroke-miterlimit="8"/><path d="M14.828 20.523c0-2.687 2.215-4.867 4.945-4.867 2.727 0 4.942 2.18 4.942 4.867 0 2.692-2.215 4.872-4.942 4.872-2.73 0-4.945-2.18-4.945-4.872Zm0 0" fill="#c39"/></g></svg>