<?xml version="1.0" encoding="UTF-8"?>
<svg xmlns="http://www.w3.org/2000/svg" xmlns:xlink="http://www.w3.org/1999/xlink" width="75px" height="75px" viewBox="0 0 75 75" version="1.1">
<g id="surface1">
<path style=" stroke:none;fill-rule:nonzero;fill:rgb(91.764706%,35.294118%,27.843137%);fill-opacity:1;" d="M 25.507812 54.289062 C 24.941406 57.089844 25.050781 59.492188 25.824219 61.226562 C 27.964844 66.019531 33.601562 68.179688 38.398438 66.039062 C 40.71875 65.003906 42.5 63.125 43.40625 60.75 C 44.316406 58.375 44.246094 55.789062 43.210938 53.464844 C 42.066406 50.90625 40.636719 48.929688 37.933594 48.148438 C 37.609375 48.058594 37.890625 46.972656 38.019531 46.664062 L 38.894531 43.734375 L 30.980469 41.097656 C 27.417969 49.148438 25.664062 53.519531 25.507812 54.289062 Z M 35.957031 52.199219 C 37.234375 52.492188 38.320312 53.261719 39.019531 54.371094 C 39.714844 55.476562 39.9375 56.792969 39.644531 58.070312 C 39.355469 59.34375 38.585938 60.433594 37.476562 61.128906 C 36.683594 61.625 35.789062 61.882812 34.878906 61.882812 C 34.511719 61.882812 34.140625 61.839844 33.777344 61.757812 C 32.5 61.464844 31.414062 60.695312 30.71875 59.585938 C 30.019531 58.476562 29.796875 57.164062 30.089844 55.886719 C 30.378906 54.609375 31.152344 53.523438 32.261719 52.828125 C 33.371094 52.128906 34.6875 51.910156 35.957031 52.199219 Z M 35.957031 52.199219 "/>
<path style=" stroke:none;fill-rule:nonzero;fill:rgb(81.568627%,81.176471%,80.784314%);fill-opacity:1;" d="M 38.550781 43.832031 L 51.191406 12.535156 C 48.910156 13.257812 46.445312 13.824219 44.417969 15.882812 C 41.875 18.464844 40.019531 22.539062 40.019531 22.539062 C 40.019531 22.539062 32.117188 39.75 31.734375 40.605469 C 31.71875 40.636719 38.550781 43.832031 38.550781 43.832031 Z M 38.550781 43.832031 "/>
<path style=" stroke:none;fill-rule:nonzero;fill:rgb(60.784314%,60.784314%,60.392157%);fill-opacity:1;" d="M 63.554688 25.519531 C 63.554688 25.519531 47.625 30.917969 48.125 30.679688 C 48.121094 30.679688 48.121094 30.675781 48.121094 30.671875 L 44.007812 32.390625 L 38.660156 45.898438 L 44.605469 43.039062 L 44.609375 43.023438 C 44.5 43.058594 54.414062 37.144531 54.59375 37.054688 C 58.789062 34.886719 61.914062 30.652344 63.554688 25.519531 Z M 63.554688 25.519531 "/>
<path style=" stroke:none;fill-rule:nonzero;fill:rgb(82.352941%,18.431373%,15.294118%);fill-opacity:1;" d="M 22.742188 34.253906 C 18.492188 32.355469 11.910156 34.46875 10.011719 38.71875 C 8.113281 42.972656 9.824219 49.585938 14.078125 51.484375 C 15.617188 52.171875 18.183594 52.585938 20.671875 52.082031 C 20.777344 52.0625 24.175781 51.847656 23.773438 52.109375 L 26.152344 51 C 27.378906 47.90625 31.066406 39.1875 31.367188 38.515625 L 28.515625 39.882812 L 28.507812 39.894531 C 28.492188 40.191406 24.886719 35.210938 22.742188 34.253906 Z M 22.484375 45.035156 C 21.8125 46.105469 20.761719 46.851562 19.527344 47.132812 C 19.175781 47.214844 18.824219 47.253906 18.472656 47.253906 C 16.316406 47.253906 14.359375 45.761719 13.859375 43.570312 C 13.578125 42.339844 13.792969 41.070312 14.464844 40 C 15.136719 38.929688 16.1875 38.183594 17.421875 37.902344 C 18.652344 37.621094 19.921875 37.835938 20.992188 38.507812 C 22.0625 39.179688 22.808594 40.230469 23.089844 41.464844 C 23.371094 42.695312 23.15625 43.964844 22.484375 45.035156 Z M 22.484375 45.035156 "/>
<path style="fill:none;stroke-width:2;stroke-linecap:round;stroke-linejoin:round;stroke:rgb(0%,0%,0%);stroke-opacity:1;stroke-miterlimit:10;" d="M 29.58375 39.6225 C 32.64 32.74125 36.23625 24.97875 37.38375 22.755 C 39.45375 18.7425 43.1175 12.56625 49.92375 11.56125 L 37.26375 42.11625 " transform="matrix(1.041667,0,0,1.041667,0,0)"/>
<path style="fill:none;stroke-width:2;stroke-linecap:round;stroke-linejoin:round;stroke:rgb(0%,0%,0%);stroke-opacity:1;stroke-miterlimit:10;" d="M 41.46375 50.9775 C 40.32375 48.4275 38.15625 46.66125 35.67 45.94125 L 37.26375 42.11625 L 29.58375 39.6225 C 27.07875 45.2625 24.705 50.83875 24.49125 51.885 C 24.13125 53.67375 23.87625 56.26125 24.82875 58.39875 C 26.88 62.9925 32.265 65.055 36.85875 63.00375 C 41.4525 60.9525 43.51125 55.5675 41.46375 50.9775 Z M 37.9125 55.71375 C 37.35375 58.1625 34.9125 59.69625 32.46 59.1375 C 30.0075 58.57875 28.47375 56.1375 29.0325 53.685 C 29.595 51.2325 32.03625 49.69875 34.485 50.26125 C 36.9375 50.82 38.47125 53.26125 37.9125 55.71375 Z M 37.9125 55.71375 " transform="matrix(1.041667,0,0,1.041667,0,0)"/>
<path style="fill:none;stroke-width:2;stroke-linecap:round;stroke-linejoin:round;stroke:rgb(0%,0%,0%);stroke-opacity:1;stroke-miterlimit:10;" d="M 26.37375 38.23875 C 25.59 35.91 23.87625 33.9075 21.4575 32.8275 C 16.86375 30.77625 11.47875 32.83875 9.43125 37.4325 C 7.38 42.02625 9.4425 47.41125 14.03625 49.45875 C 16.17375 50.415 18.76125 50.16 20.55 49.8 C 20.8425 49.74 21.44625 49.53 22.29 49.2 M 18.75 45.255 C 16.2975 45.8175 13.85625 44.28375 13.2975 41.83125 C 12.735 39.37875 14.26875 36.9375 16.72125 36.37875 C 19.17375 35.81625 21.615 37.35 22.17375 39.8025 C 22.73625 42.255 21.2025 44.69625 18.75 45.255 Z M 18.75 45.255 " transform="matrix(1.041667,0,0,1.041667,0,0)"/>
<path style="fill:none;stroke-width:2;stroke-linecap:round;stroke-linejoin:round;stroke:rgb(0%,0%,0%);stroke-opacity:1;stroke-miterlimit:10;" d="M 46.62375 30.345 L 60.87375 24.36375 C 59.86875 31.17375 53.68875 34.83375 49.67625 36.9075 C 48.3675 37.5825 46.365 38.59875 42.51375 40.36875 " transform="matrix(1.041667,0,0,1.041667,0,0)"/>
</g>
</svg>
