<?xml version="1.0" encoding="UTF-8"?>
<svg xmlns="http://www.w3.org/2000/svg" xmlns:xlink="http://www.w3.org/1999/xlink" width="75px" height="75px" viewBox="0 0 75 75" version="1.1">
<g id="surface1">
<path style=" stroke:none;fill-rule:nonzero;fill:rgb(81.568627%,81.176471%,80.784314%);fill-opacity:1;" d="M 58.109375 36.449219 C 58.347656 36.761719 58.390625 37.179688 58.21875 37.53125 L 54.164062 45.929688 C 54.019531 46.226562 53.746094 46.4375 53.425781 46.5 L 42.179688 48.726562 C 41.890625 48.785156 41.589844 48.714844 41.351562 48.539062 L 16.890625 30.230469 C 16.664062 30.058594 16.515625 29.804688 16.480469 29.523438 C 16.445312 29.242188 16.527344 28.957031 16.707031 28.738281 L 19.246094 25.617188 C 19.339844 25.5 19.453125 25.410156 19.585938 25.34375 L 38.652344 15.738281 C 38.867188 15.632812 39.105469 15.601562 39.339844 15.648438 L 43.316406 16.488281 C 43.589844 16.546875 43.828125 16.710938 43.980469 16.949219 L 46.765625 21.265625 L 48.453125 23.859375 Z M 58.109375 36.449219 "/>
<path style=" stroke:none;fill-rule:nonzero;fill:rgb(24.705882%,24.705882%,24.705882%);fill-opacity:1;" d="M 27.804688 58.332031 L 48.738281 58.332031 L 41.996094 47.726562 L 17.648438 29.394531 L 16.472656 34.421875 Z M 27.804688 58.332031 "/>
<path style=" stroke:none;fill-rule:nonzero;fill:rgb(60.784314%,60.784314%,60.392157%);fill-opacity:1;" d="M 57.0625 37.53125 L 58.464844 49.523438 L 56.738281 58.332031 L 48.738281 58.332031 L 41.996094 47.726562 L 53.0625 45.769531 Z M 57.0625 37.53125 "/>
<path style="fill:none;stroke-width:2;stroke-linecap:round;stroke-linejoin:round;stroke:rgb(0%,0%,0%);stroke-opacity:1;stroke-miterlimit:4;" d="M 45.79875 23.60625 L 54.99 35.59875 L 56.12625 47.23875 L 54.46875 55.99875 L 26.6925 55.99875 L 16.00125 32.86125 L 16.81125 28.21875 L 19.2525 25.2225 L 37.55625 16.00125 L 41.3775 16.8075 L 44.02125 20.9175 L 39.0075 24.27 " transform="matrix(1.041667,0,0,1.041667,0,0)"/>
<path style="fill:none;stroke-width:2;stroke-linecap:round;stroke-linejoin:round;stroke:rgb(0%,0%,0%);stroke-opacity:1;stroke-miterlimit:4;" d="M 47.35875 55.99875 L 40.2975 45.79875 L 16.81125 28.21875 " transform="matrix(1.041667,0,0,1.041667,0,0)"/>
<path style="fill:none;stroke-width:2;stroke-linecap:round;stroke-linejoin:round;stroke:rgb(0%,0%,0%);stroke-opacity:1;stroke-miterlimit:4;" d="M 54.99 35.59875 L 51.09375 43.6575 L 40.2975 45.79875 " transform="matrix(1.041667,0,0,1.041667,0,0)"/>
</g>
</svg>
